<?xml version="1.0" encoding="UTF-8"?>
<svg width="700pt" height="700pt" version="1.1" viewBox="0 0 700 700" xmlns="http://www.w3.org/2000/svg">
 <path d="m551.6 470.4h-33.602v-302.4c0.34375-5.043-2.8008-9.6641-7.6172-11.199l-104.38-34.273v-44.801c0-2.9688-1.1797-5.8164-3.2812-7.918-2.0977-2.1016-4.9492-3.2812-7.918-3.2812h-201.6c-6.1836 0-11.199 5.0156-11.199 11.199v392.67h-33.602c-6.1836 0-11.199 5.0156-11.199 11.203 0 6.1836 5.0156 11.199 11.199 11.199h403.2c6.1836 0 11.199-5.0156 11.199-11.199 0-6.1875-5.0156-11.203-11.199-11.203zm-56-294.34v294.34h-89.602v-324.35zm-212.8 294.34v-44.797h22.398v44.801zm33.598-67.199h-44.797c-6.1875 0-11.203 5.0156-11.203 11.199v56h-56v-380.8h179.2l0.003906 380.8h-56v-56.672c-0.35937-5.9219-5.2695-10.539-11.203-10.527zm-34.047-56c0.003907 6.0156-4.7422 10.961-10.75 11.199h-22.402c-6.1836 0-11.199-5.0117-11.199-11.199 0-6.1836 5.0156-11.199 11.199-11.199h22.402c6.0078 0.24219 10.754 5.1836 10.75 11.199zm57.793 11.199h-23.746c-6.1836 0-11.199-5.0117-11.199-11.199 0-6.1836 5.0156-11.199 11.199-11.199h22.402c6.1836 0 11.199 5.0156 11.199 11.199 0 6.1875-5.0156 11.199-11.199 11.199zm-57.793-78.398c0.003907 6.0156-4.7422 10.961-10.75 11.199h-22.402c-6.1836 0-11.199-5.0117-11.199-11.199s5.0156-11.199 11.199-11.199h22.402c6.0078 0.23828 10.754 5.1836 10.75 11.199zm22.398 0h0.003906c-0.003906-3.0508 1.2383-5.9688 3.4336-8.082 2.1992-2.1133 5.1641-3.2383 8.2109-3.1172h22.402c6.1836 0 11.199 5.0117 11.199 11.199s-5.0156 11.199-11.199 11.199h-22.402c-6.0078-0.23828-10.754-5.1836-10.75-11.199zm-22.398-67.199c0.003907 6.0156-4.7422 10.957-10.75 11.199h-22.402c-6.1836 0-11.199-5.0156-11.199-11.199 0-6.1875 5.0156-11.199 11.199-11.199h22.402c6.0078 0.23828 10.754 5.1836 10.75 11.199zm22.398 0h0.003906c-0.003906-3.0508 1.2383-5.9688 3.4336-8.082 2.1992-2.1133 5.1641-3.2422 8.2109-3.1172h22.402c6.1836 0 11.199 5.0117 11.199 11.199 0 6.1836-5.0156 11.199-11.199 11.199h-22.402c-6.0078-0.24219-10.754-5.1836-10.75-11.199zm-22.398-67.199c0.003907 6.0117-4.7422 10.957-10.75 11.199h-22.402c-6.1836 0-11.199-5.0156-11.199-11.199 0-6.1875 5.0156-11.203 11.199-11.203h22.402c6.0078 0.24219 10.754 5.1875 10.75 11.203zm22.398 0h0.003906c-0.003906-3.0508 1.2383-5.9688 3.4336-8.082 2.1992-2.1172 5.1641-3.2422 8.2109-3.1211h22.402c6.1836 0 11.199 5.0156 11.199 11.203 0 6.1836-5.0156 11.199-11.199 11.199h-22.402c-6.0078-0.24219-10.754-5.1875-10.75-11.199zm167.55 268.8 0.003907-0.003906c0 2.9727-1.1797 5.8203-3.2812 7.9219-2.1016 2.1016-4.9492 3.2812-7.918 3.2812h-22.402c-6.1836 0-11.199-5.0156-11.199-11.203 0-6.1836 5.0156-11.199 11.199-11.199h22.402c3.0078-0.24609 5.9883 0.73438 8.2656 2.7148 2.2773 1.9805 3.6562 4.8008 3.8281 7.8125zm-44.801-67.199 0.003906-0.003906c0.12109-6.1367 5.0664-11.078 11.199-11.199h22.402c6.1328 0.12109 11.078 5.0625 11.199 11.199 0 2.9727-1.1797 5.8203-3.2812 7.9219-2.1016 2.0977-4.9492 3.2773-7.918 3.2773h-22.402c-6.0078-0.47656-10.562-5.625-10.305-11.645zm0-67.199 0.003906-0.003906c0-6.1875 5.0156-11.199 11.199-11.199h22.402c6.1836 0 11.199 5.0117 11.199 11.199s-5.0156 11.199-11.199 11.199h-22.402c-5.832-0.46875-10.32-5.3477-10.305-11.199zm0-67.199 0.003906-0.003907c0-6.1875 5.0156-11.199 11.199-11.199h22.402c2.9688 0 5.8164 1.1797 7.918 3.2773 2.1016 2.1016 3.2812 4.9492 3.2812 7.9219-0.12109 6.1367-5.0664 11.078-11.199 11.199h-22.402c-5.6172-0.54688-9.9961-5.1133-10.305-10.754z"/>
</svg>
