<?xml version="1.0" encoding="UTF-8"?>
<svg width="700pt" height="700pt" version="1.1" viewBox="0 0 700 700" xmlns="http://www.w3.org/2000/svg" xmlns:xlink="http://www.w3.org/1999/xlink">
 <defs>
  <symbol id="v" overflow="visible">
   <path d="m18.562-1.1094c-0.94922 0.5-1.9453 0.875-2.9844 1.125-1.043 0.25-2.125 0.375-3.25 0.375-3.3672 0-6.0312-0.9375-8-2.8125-1.9688-1.8828-2.9531-4.4375-2.9531-7.6562 0-3.2266 0.98438-5.7852 2.9531-7.6719 1.9688-1.8828 4.6328-2.8281 8-2.8281 1.125 0 2.207 0.13281 3.25 0.39062 1.0391 0.25 2.0352 0.625 2.9844 1.125v4.1719c-0.96094-0.65625-1.9062-1.1328-2.8438-1.4375-0.9375-0.3125-1.9297-0.46875-2.9688-0.46875-1.8555 0-3.3203 0.60156-4.3906 1.7969-1.0625 1.1875-1.5938 2.8281-1.5938 4.9219 0 2.0859 0.53125 3.7188 1.5938 4.9062 1.0703 1.1875 2.5352 1.7812 4.3906 1.7812 1.0391 0 2.0312-0.14844 2.9688-0.45312 0.9375-0.30078 1.8828-0.78516 2.8438-1.4531z"/>
  </symbol>
  <symbol id="b" overflow="visible">
   <path d="m13.594-11.031c-0.42969-0.19531-0.85547-0.34375-1.2812-0.4375-0.41797-0.09375-0.83594-0.14062-1.25-0.14062-1.25 0-2.2148 0.40234-2.8906 1.2031-0.66797 0.79297-1 1.9336-1 3.4219v6.9844h-4.8438v-15.156h4.8438v2.4844c0.625-0.98828 1.3359-1.7109 2.1406-2.1719 0.8125-0.45703 1.7812-0.6875 2.9062-0.6875 0.16406 0 0.34375 0.011719 0.53125 0.03125 0.1875 0.011719 0.46094 0.039062 0.82812 0.078125z"/>
  </symbol>
  <symbol id="a" overflow="visible">
   <path d="m17.453-7.625v1.3906h-11.328c0.125 1.1367 0.53516 1.9922 1.2344 2.5625 0.70703 0.5625 1.6914 0.84375 2.9531 0.84375 1.0195 0 2.0625-0.14844 3.125-0.45312 1.0703-0.30078 2.1758-0.75781 3.3125-1.375v3.7344c-1.1562 0.4375-2.3086 0.76562-3.4531 0.98438-1.1484 0.21875-2.293 0.32812-3.4375 0.32812-2.7422 0-4.8711-0.69531-6.3906-2.0938-1.5234-1.3945-2.2812-3.3477-2.2812-5.8594 0-2.4766 0.74219-4.4258 2.2344-5.8438 1.5-1.4141 3.5547-2.125 6.1719-2.125 2.3828 0 4.2891 0.71875 5.7188 2.1562 1.4258 1.4375 2.1406 3.3555 2.1406 5.75zm-4.9688-1.6094c0-0.91406-0.27344-1.6562-0.8125-2.2188-0.53125-0.5625-1.2344-0.84375-2.1094-0.84375-0.9375 0-1.6992 0.26562-2.2812 0.79688-0.58594 0.52344-0.94922 1.2773-1.0938 2.2656z"/>
  </symbol>
  <symbol id="d" overflow="visible">
   <path d="m9.125-6.8281c-1.0117 0-1.7734 0.17188-2.2812 0.51562-0.51172 0.34375-0.76562 0.85156-0.76562 1.5156 0 0.61719 0.20312 1.1016 0.60938 1.4531 0.41406 0.34375 0.98828 0.51562 1.7188 0.51562 0.90625 0 1.6719-0.32812 2.2969-0.98438s0.9375-1.4727 0.9375-2.4531v-0.5625zm7.4062-1.8281v8.6562h-4.8906v-2.25c-0.64844 0.92969-1.375 1.6016-2.1875 2.0156s-1.8047 0.625-2.9688 0.625c-1.5742 0-2.8516-0.45703-3.8281-1.375-0.98047-0.91406-1.4688-2.1016-1.4688-3.5625 0-1.7812 0.60938-3.082 1.8281-3.9062 1.2266-0.83203 3.1484-1.25 5.7656-1.25h2.8594v-0.375c0-0.76953-0.30469-1.332-0.90625-1.6875-0.60547-0.35156-1.5469-0.53125-2.8281-0.53125-1.043 0-2.0117 0.10547-2.9062 0.3125-0.88672 0.19922-1.7148 0.50781-2.4844 0.92188v-3.6875c1.0391-0.25 2.082-0.44141 3.125-0.57812 1.0508-0.13281 2.0977-0.20312 3.1406-0.20312 2.7383 0 4.7109 0.54297 5.9219 1.625 1.2188 1.0742 1.8281 2.8242 1.8281 5.25z"/>
  </symbol>
  <symbol id="c" overflow="visible">
   <path d="m7.625-19.469v4.3125h4.9844v3.4688h-4.9844v6.4219c0 0.71094 0.13281 1.1875 0.40625 1.4375 0.28125 0.24219 0.83594 0.35938 1.6719 0.35938h2.4844v3.4688h-4.1406c-1.918 0-3.2773-0.39453-4.0781-1.1875-0.79297-0.80078-1.1875-2.1602-1.1875-4.0781v-6.4219h-2.4219v-3.4688h2.4219v-4.3125z"/>
  </symbol>
  <symbol id="k" overflow="visible">
   <path d="m12.641-12.938v-8.125h4.875v21.062h-4.875v-2.1875c-0.66797 0.88672-1.4023 1.5391-2.2031 1.9531-0.80469 0.41406-1.7344 0.625-2.7969 0.625-1.8672 0-3.3984-0.73828-4.5938-2.2188-1.1992-1.4883-1.7969-3.3984-1.7969-5.7344 0-2.3438 0.59766-4.2539 1.7969-5.7344 1.1953-1.4883 2.7266-2.2344 4.5938-2.2344 1.0508 0 1.9766 0.21484 2.7812 0.64062 0.8125 0.41797 1.5508 1.0703 2.2188 1.9531zm-3.1875 9.8125c1.0312 0 1.8164-0.37891 2.3594-1.1406 0.55078-0.75781 0.82812-1.8594 0.82812-3.2969 0-1.4453-0.27734-2.5469-0.82812-3.2969-0.54297-0.75781-1.3281-1.1406-2.3594-1.1406s-1.8242 0.38281-2.375 1.1406c-0.54297 0.75-0.8125 1.8516-0.8125 3.2969 0 1.4375 0.26953 2.5391 0.8125 3.2969 0.55078 0.76172 1.3438 1.1406 2.375 1.1406z"/>
  </symbol>
  <symbol id="j" overflow="visible">
   <path d="m10.391-3.125c1.0391 0 1.832-0.37891 2.375-1.1406 0.55078-0.75781 0.82812-1.8594 0.82812-3.2969 0-1.4453-0.27734-2.5469-0.82812-3.2969-0.54297-0.75781-1.3359-1.1406-2.375-1.1406-1.0312 0-1.8281 0.38281-2.3906 1.1406-0.55469 0.76172-0.82812 1.8594-0.82812 3.2969s0.27344 2.5391 0.82812 3.2969c0.5625 0.76172 1.3594 1.1406 2.3906 1.1406zm-3.2188-9.8125c0.66406-0.88281 1.4062-1.5352 2.2188-1.9531 0.8125-0.42578 1.7422-0.64062 2.7969-0.64062 1.875 0 3.4102 0.74609 4.6094 2.2344 1.1953 1.4805 1.7969 3.3906 1.7969 5.7344 0 2.3359-0.60156 4.2461-1.7969 5.7344-1.1992 1.4805-2.7344 2.2188-4.6094 2.2188-1.0547 0-1.9844-0.21094-2.7969-0.625s-1.5547-1.0664-2.2188-1.9531v2.1875h-4.8438v-21.062h4.8438z"/>
  </symbol>
  <symbol id="g" overflow="visible">
   <path d="m0.34375-15.156h4.8438l4.0625 10.281 3.4688-10.281h4.8438l-6.375 16.594c-0.63672 1.6875-1.3828 2.8633-2.2344 3.5312-0.85547 0.67578-1.9805 1.0156-3.375 1.0156h-2.7969v-3.1875h1.5156c0.8125 0 1.4062-0.13281 1.7812-0.39062 0.375-0.26172 0.66406-0.73047 0.875-1.4062l0.14062-0.42188z"/>
  </symbol>
  <symbol id="i" overflow="visible">
   <path d="m2.3281-21.062h4.8438v21.062h-4.8438z"/>
  </symbol>
  <symbol id="u" overflow="visible">
   <path d="m2.3281-15.156h4.8438v15.156h-4.8438zm0-5.9062h4.8438v3.9531h-4.8438z"/>
  </symbol>
  <symbol id="f" overflow="visible">
   <path d="m16.375-12.641c0.61328-0.9375 1.3438-1.6484 2.1875-2.1406 0.84375-0.5 1.7695-0.75 2.7812-0.75 1.7383 0 3.0625 0.54297 3.9688 1.625 0.91406 1.0742 1.375 2.6328 1.375 4.6719v9.2344h-4.875v-7.9062c0.007812-0.11328 0.015625-0.23438 0.015625-0.35938 0.007813-0.125 0.015625-0.30469 0.015625-0.54688 0-1.0703-0.16406-1.8477-0.48438-2.3281-0.3125-0.48828-0.82031-0.73438-1.5156-0.73438-0.91797 0-1.6328 0.38281-2.1406 1.1406-0.5 0.76172-0.75781 1.8594-0.76562 3.2969v7.4375h-4.875v-7.9062c0-1.6758-0.14844-2.7539-0.4375-3.2344-0.29297-0.48828-0.80859-0.73438-1.5469-0.73438-0.92969 0-1.6484 0.38672-2.1562 1.1562-0.5 0.76172-0.75 1.8516-0.75 3.2656v7.4531h-4.875v-15.156h4.875v2.2188c0.59375-0.85156 1.2734-1.5 2.0469-1.9375 0.76953-0.4375 1.625-0.65625 2.5625-0.65625 1.0391 0 1.9609 0.25781 2.7656 0.76562 0.80078 0.5 1.4102 1.2109 1.8281 2.125z"/>
  </symbol>
  <symbol id="t" overflow="visible">
   <path d="m14.172-14.688v3.6875c-1.043-0.4375-2.0469-0.75781-3.0156-0.96875-0.96094-0.21875-1.8672-0.32812-2.7188-0.32812-0.92969 0-1.6172 0.11719-2.0625 0.34375-0.4375 0.23047-0.65625 0.58594-0.65625 1.0625 0 0.38672 0.16406 0.68359 0.5 0.89062 0.34375 0.21094 0.95312 0.35938 1.8281 0.45312l0.84375 0.125c2.4766 0.3125 4.1445 0.83594 5 1.5625 0.86328 0.71875 1.2969 1.8516 1.2969 3.3906 0 1.6172-0.60156 2.8281-1.7969 3.6406-1.1875 0.8125-2.9648 1.2188-5.3281 1.2188-1 0-2.0391-0.078125-3.1094-0.23438-1.0625-0.15625-2.1562-0.39453-3.2812-0.71875v-3.6719c0.95703 0.46875 1.9414 0.82422 2.9531 1.0625 1.0195 0.23047 2.0547 0.34375 3.1094 0.34375 0.94531 0 1.6562-0.12891 2.125-0.39062 0.47656-0.25781 0.71875-0.64844 0.71875-1.1719 0-0.42578-0.16797-0.74219-0.5-0.95312-0.32422-0.21875-0.97656-0.38281-1.9531-0.5l-0.85938-0.10938c-2.1562-0.26953-3.668-0.76953-4.5312-1.5-0.86719-0.72656-1.2969-1.8359-1.2969-3.3281 0-1.6133 0.54688-2.8047 1.6406-3.5781 1.1016-0.78125 2.7891-1.1719 5.0625-1.1719 0.89453 0 1.832 0.070312 2.8125 0.20312 0.98828 0.13672 2.0625 0.35156 3.2188 0.64062z"/>
  </symbol>
  <symbol id="s" overflow="visible">
   <path d="m2.3281-21.062h4.8438v11.469l5.5781-5.5625h5.625l-7.4062 6.9531 8 8.2031h-5.875l-5.9219-6.3281v6.3281h-4.8438z"/>
  </symbol>
  <symbol id="h" overflow="visible">
   <path d="m2.1719-5.9062v-9.25h4.8594v1.5156c0 0.82422-0.007812 1.8555-0.015625 3.0938v2.4844c0 1.2188 0.03125 2.1016 0.09375 2.6406 0.0625 0.53125 0.17188 0.91797 0.32812 1.1562 0.19531 0.3125 0.45312 0.55859 0.76562 0.73438 0.32031 0.16797 0.69141 0.25 1.1094 0.25 1.0078 0 1.8008-0.38281 2.375-1.1562 0.58203-0.78125 0.875-1.8594 0.875-3.2344v-7.4844h4.8438v15.156h-4.8438v-2.1875c-0.73047 0.88672-1.5078 1.5391-2.3281 1.9531-0.8125 0.41406-1.7148 0.625-2.7031 0.625-1.75 0-3.0859-0.53516-4-1.6094-0.90625-1.0703-1.3594-2.6328-1.3594-4.6875z"/>
  </symbol>
  <symbol id="r" overflow="visible">
   <path d="m12.297-21.062v3.1875h-2.6719c-0.6875 0-1.168 0.125-1.4375 0.375-0.27344 0.24219-0.40625 0.66797-0.40625 1.2812v1.0625h4.1406v3.4688h-4.1406v11.688h-4.8438v-11.688h-2.4062v-3.4688h2.4062v-1.0625c0-1.6445 0.45703-2.8633 1.375-3.6562 0.92578-0.78906 2.3516-1.1875 4.2812-1.1875z"/>
  </symbol>
  <symbol id="e" overflow="visible">
   <path d="m9.5469-12.062c-1.0742 0-1.8984 0.38672-2.4688 1.1562-0.5625 0.77344-0.84375 1.8867-0.84375 3.3438 0 1.4492 0.28125 2.5586 0.84375 3.3281 0.57031 0.77344 1.3945 1.1562 2.4688 1.1562 1.0508 0 1.8516-0.38281 2.4062-1.1562 0.5625-0.76953 0.84375-1.8789 0.84375-3.3281 0-1.457-0.28125-2.5703-0.84375-3.3438-0.55469-0.76953-1.3555-1.1562-2.4062-1.1562zm0-3.4688c2.6016 0 4.6406 0.71094 6.1094 2.125 1.4688 1.4062 2.2031 3.3555 2.2031 5.8438 0 2.4922-0.73438 4.4375-2.2031 5.8438s-3.5078 2.1094-6.1094 2.1094c-2.625 0-4.6797-0.70312-6.1562-2.1094-1.4688-1.4062-2.2031-3.3516-2.2031-5.8438 0-2.4883 0.73438-4.4375 2.2031-5.8438 1.4766-1.4141 3.5312-2.125 6.1562-2.125z"/>
  </symbol>
  <symbol id="q" overflow="visible">
   <path d="m17.562-9.2344v9.2344h-4.8594v-7.0312c0-1.332-0.03125-2.2422-0.09375-2.7344-0.0625-0.5-0.16797-0.86719-0.3125-1.1094-0.1875-0.3125-0.44531-0.55469-0.76562-0.73438-0.32422-0.17578-0.69531-0.26562-1.1094-0.26562-1.0117 0-1.8086 0.39062-2.3906 1.1719-0.57422 0.78125-0.85938 1.8672-0.85938 3.25v7.4531h-4.8438v-21.062h4.8438v8.125c0.72656-0.88281 1.5039-1.5352 2.3281-1.9531 0.82031-0.42578 1.7266-0.64062 2.7188-0.64062 1.75 0 3.0781 0.54297 3.9844 1.625 0.90625 1.0742 1.3594 2.6328 1.3594 4.6719z"/>
  </symbol>
  <symbol id="p" overflow="visible">
   <path d="m2.5469-20.203h5.8125l7.3594 13.859v-13.859h4.9375v20.203h-5.8281l-7.3438-13.859v13.859h-4.9375z"/>
  </symbol>
  <symbol id="o" overflow="visible">
   <path d="m17.562-9.2344v9.2344h-4.8594v-7.0625c0-1.3125-0.03125-2.2109-0.09375-2.7031-0.0625-0.5-0.16797-0.86719-0.3125-1.1094-0.1875-0.3125-0.44531-0.55469-0.76562-0.73438-0.32422-0.17578-0.69531-0.26562-1.1094-0.26562-1.0117 0-1.8086 0.39062-2.3906 1.1719-0.57422 0.78125-0.85938 1.8672-0.85938 3.25v7.4531h-4.8438v-15.156h4.8438v2.2188c0.72656-0.88281 1.5039-1.5352 2.3281-1.9531 0.82031-0.42578 1.7266-0.64062 2.7188-0.64062 1.75 0 3.0781 0.54297 3.9844 1.625 0.90625 1.0742 1.3594 2.6328 1.3594 4.6719z"/>
  </symbol>
  <symbol id="n" overflow="visible">
   <path d="m2.5469-20.203h8.6406c2.5703 0 4.5469 0.57422 5.9219 1.7188 1.375 1.1367 2.0625 2.7617 2.0625 4.875 0 2.1172-0.6875 3.7461-2.0625 4.8906-1.375 1.1367-3.3516 1.7031-5.9219 1.7031h-3.4375v7.0156h-5.2031zm5.2031 3.7656v5.6562h2.8906c1.0078 0 1.7891-0.24219 2.3438-0.73438 0.55078-0.5 0.82812-1.1953 0.82812-2.0938 0-0.90625-0.27734-1.6016-0.82812-2.0938-0.55469-0.48828-1.3359-0.73438-2.3438-0.73438z"/>
  </symbol>
  <symbol id="m" overflow="visible">
   <path d="m2.3281-15.156h4.8438v14.891c0 2.0312-0.49219 3.5781-1.4688 4.6406-0.96875 1.0703-2.3828 1.6094-4.2344 1.6094h-2.3906v-3.1875h0.84375c0.91406 0 1.5469-0.21094 1.8906-0.625 0.34375-0.40625 0.51562-1.2188 0.51562-2.4375zm0-5.9062h4.8438v3.9531h-4.8438z"/>
  </symbol>
  <symbol id="l" overflow="visible">
   <path d="m14.578-14.688v3.9531c-0.65625-0.44531-1.3203-0.78125-1.9844-1-0.66797-0.21875-1.3555-0.32812-2.0625-0.32812-1.3555 0-2.4141 0.39844-3.1719 1.1875-0.75 0.79297-1.125 1.8984-1.125 3.3125 0 1.418 0.375 2.5234 1.125 3.3125 0.75781 0.78125 1.8164 1.1719 3.1719 1.1719 0.75781 0 1.4766-0.10938 2.1562-0.32812 0.67578-0.22656 1.3047-0.5625 1.8906-1v3.9531c-0.76172 0.28125-1.5312 0.48828-2.3125 0.625-0.78125 0.14453-1.5625 0.21875-2.3438 0.21875-2.7422 0-4.8828-0.69531-6.4219-2.0938-1.543-1.4062-2.3125-3.3594-2.3125-5.8594s0.76953-4.4531 2.3125-5.8594c1.5391-1.4062 3.6797-2.1094 6.4219-2.1094 0.78906 0 1.5703 0.074219 2.3438 0.21875 0.76953 0.13672 1.5391 0.34375 2.3125 0.625z"/>
  </symbol>
 </defs>
 <g>
  <path d="m337.11 450.89c-17.758 5.0664-12.426 23.793 5.332 18.723 20.574-5.8711 60.922-17.375 93.469-26.66 19.805-5.6289 34.066-23.012 35.75-43.559 0.67188-8.4766-0.82031-16.738-4.125-24.148l121.69-31.289c11.422-2.9219 23.383 2.4961 28.688 13.062 5.3398 10.605 2.5117 23.52-6.6914 30.883-40.836 32.879-97.395 78.418-136.96 110.28-32.234 25.949-73.688 37.598-114.72 32.215-31.582-4.1289-69.801-9.1445-99.23-13.004-27.324-3.5703-54.973 3.5039-77.207 19.777l-14.09 10.32c-5.25 3.8438-11.949 5.1172-18.254 3.5-6.293-1.625-11.527-5.9922-14.262-11.902l-55.098-103.16c-4.9297-10.668-0.47266-23.32 10.051-28.551 25.355-12.562 79.875-39.598 108-53.551 23.766-11.789 51.547-12.332 75.746-1.4961 0 0 21.191 9.1992 42.117 11.332 11.418 1.168 22.977 0.88672 34.422-0.85937 9.0586-1.3867 18.312-2.8047 26.398-4.043 18.125-2.7773 36.672-0.09375 53.281 7.7109l3.7109 1.7578c11.316 5.3281 18.125 17.105 17.133 29.582-1.0195 12.457-9.6641 23-21.691 26.418l-93.461 26.66zm-86.477-125.67c-3.1602-16.234-2.4766-33.207 2.2969-49.512 11.312-38.605 23.676-80.824 33.316-113.73 12.84-43.875 53.082-74.02 98.793-74.02h41.727c45.715 0 85.953 30.145 98.805 74.02 9.6367 32.914 22 75.129 33.305 113.73 5.332 18.207 5.5625 37.25 1.0352 55.168l-97.348 25.035c-2.25 0.57813-4.3594 1.5352-6.2383 2.8203-3.6992-3.4336-7.957-6.3359-12.688-8.5664 0.023437 0.003906-3.6914-1.7461-3.6914-1.7461-0.011719-0.003906-0.023438-0.011719-0.039063-0.015625-20.199-9.4961-42.758-12.762-64.809-9.3828-8.0664 1.2305-17.32 2.6562-26.387 4.043-9.7656 1.4922-19.629 1.7305-29.363 0.73047-17.992-1.8359-36.199-9.7852-36.199-9.7852-10.406-4.6562-21.387-7.5859-32.52-8.7891zm144.09-172.28v-11.305c0-6.1719 5.0117-11.184 11.188-11.184 6.1719 0 11.184 5.0117 11.184 11.184v11.305h23.969c6.1758 0 11.188 5.0117 11.188 11.188 0 6.1719-5.0117 11.184-11.188 11.184h-23.969v33.879h3.957c21.109 0 38.223 17.117 38.223 38.23v2.1562c0 21.113-17.117 38.23-38.223 38.23h-3.957v9.1172c0 6.1641-5.0117 11.184-11.184 11.184-6.1758 0-11.188-5.0195-11.188-11.184v-9.1172h-23.977c-6.1719 0-11.188-5.0117-11.188-11.188 0-6.1719 5.0195-11.184 11.188-11.184h23.977v-33.871h-3.9531c-21.121 0-38.234-17.117-38.234-38.234v-2.1562c0-21.113 17.117-38.23 38.234-38.23h3.9531zm22.371 78.621v33.871h3.957c8.7539 0 15.852-7.1016 15.852-15.859v-2.1562c0-8.7617-7.0977-15.859-15.852-15.859h-3.957zm-22.371-56.25h-3.9531c-8.7617 0-15.863 7.1016-15.863 15.859v2.1562c0 8.7617 7.1016 15.863 15.863 15.863h3.9531zm-51.355-100.06-11.793-17.41c-7.3359-10.828-7.2695-25.043 0.17188-35.836 7.4414-10.766 20.73-15.859 33.457-12.82l41.578 9.9023 39.621-9.6875c12.746-3.1172 26.086 1.9336 33.59 12.707 7.4922 10.777 7.5742 25.027 0.22266 35.902l-11.695 17.266c-13.125-4.7422-27.207-7.2969-41.75-7.2969h-41.727c-14.516 0-28.578 2.5469-41.672 7.2695z" fill-rule="evenodd"/>
 </g>
</svg>
