<?xml version="1.0" encoding="UTF-8"?>
<svg width="700pt" height="700pt" version="1.1" viewBox="0 0 700 700" xmlns="http://www.w3.org/2000/svg" xmlns:xlink="http://www.w3.org/1999/xlink">
 <defs>
  <symbol id="y" overflow="visible">
   <path d="m0.48438-0.03125c-0.023437 0.011719-0.046875 0.023438-0.078125 0.03125s-0.0625 0.015625-0.09375 0.015625c-0.085938 0-0.15234-0.023438-0.20312-0.078125-0.054688-0.050781-0.078125-0.11719-0.078125-0.20312 0-0.082031 0.023438-0.14844 0.078125-0.20312 0.050781-0.050781 0.11719-0.078125 0.20312-0.078125 0.03125 0 0.0625 0.007813 0.09375 0.015625 0.03125 0.011719 0.054688 0.023438 0.078125 0.03125v0.10938c-0.023437-0.019531-0.046875-0.03125-0.078125-0.03125-0.023438-0.007813-0.046875-0.015625-0.078125-0.015625-0.042969 0-0.078125 0.015625-0.10938 0.046875-0.023438 0.03125-0.03125 0.074219-0.03125 0.125 0 0.054687 0.007812 0.09375 0.03125 0.125 0.03125 0.03125 0.066406 0.046875 0.10938 0.046875h0.078125c0.03125-0.007812 0.054688-0.023438 0.078125-0.046875z"/>
  </symbol>
  <symbol id="a" overflow="visible">
   <path d="m0.34375-0.28125c0-0.007812-0.007812-0.015625-0.015625-0.015625-0.011719-0.007813-0.023437-0.015625-0.03125-0.015625-0.042969 0-0.074219 0.015625-0.09375 0.046875-0.011719 0.023437-0.015625 0.046875-0.015625 0.078125v0.1875h-0.125v-0.39062h0.125v0.0625c0.019531-0.03125 0.035156-0.050781 0.046875-0.0625 0.019531-0.007813 0.046875-0.015625 0.078125-0.015625h0.015625 0.015625z"/>
  </symbol>
  <symbol id="c" overflow="visible">
   <path d="m0.45312-0.20312v0.046875h-0.29688c0.007812 0.03125 0.019531 0.054688 0.03125 0.0625 0.019531 0.011719 0.046875 0.015625 0.078125 0.015625s0.054687-0.0039062 0.078125-0.015625c0.03125-0.007812 0.0625-0.019531 0.09375-0.03125v0.10938c-0.03125 0-0.0625 0.0078125-0.09375 0.015625-0.023438 0.0078125-0.046875 0.015625-0.078125 0.015625-0.085937 0-0.14844-0.019531-0.1875-0.0625-0.03125-0.039062-0.046875-0.085937-0.046875-0.14062 0-0.070312 0.015625-0.125 0.046875-0.15625 0.039063-0.039062 0.097656-0.0625 0.17188-0.0625 0.0625 0 0.10938 0.023438 0.14062 0.0625 0.039063 0.03125 0.0625 0.078125 0.0625 0.14062zm-0.125-0.03125c0-0.03125-0.011719-0.050781-0.03125-0.0625-0.011719-0.007813-0.027344-0.015625-0.046875-0.015625-0.023438 0-0.042969 0.007812-0.0625 0.015625-0.011719 0.011719-0.023438 0.03125-0.03125 0.0625z"/>
  </symbol>
  <symbol id="e" overflow="visible">
   <path d="m0.23438-0.1875c-0.023437 0-0.042969 0.011719-0.0625 0.03125-0.011719 0.011719-0.015625 0.023438-0.015625 0.03125 0 0.011719 0.003906 0.023438 0.015625 0.03125 0.007813 0.011719 0.023437 0.015625 0.046875 0.015625 0.03125 0 0.050781-0.0039062 0.0625-0.015625 0.019531-0.019531 0.03125-0.039062 0.03125-0.0625v-0.03125zm0.1875-0.03125v0.21875h-0.10938v-0.0625c-0.023438 0.03125-0.042969 0.054688-0.0625 0.0625-0.023438 0.0078125-0.046875 0.015625-0.078125 0.015625-0.042969 0-0.078125-0.011719-0.10938-0.03125-0.023438-0.03125-0.03125-0.066406-0.03125-0.10938 0-0.039062 0.015625-0.070312 0.046875-0.09375 0.03125-0.019531 0.078125-0.03125 0.14062-0.03125h0.09375v-0.015625c0-0.019531-0.011719-0.03125-0.03125-0.03125-0.011719-0.007813-0.039062-0.015625-0.078125-0.015625h-0.078125c-0.023438 0-0.042969 0.007812-0.0625 0.015625v-0.09375h0.078125c0.03125-0.007813 0.054687-0.015625 0.078125-0.015625 0.082031 0 0.13281 0.015625 0.15625 0.046875 0.03125 0.03125 0.046875 0.078125 0.046875 0.14062z"/>
  </symbol>
  <symbol id="b" overflow="visible">
   <path d="m0.20312-0.51562v0.125h0.125v0.078125h-0.125v0.17188 0.046875h0.046875 0.0625v0.09375h-0.09375c-0.054688 0-0.09375-0.0078125-0.125-0.03125-0.023438-0.019531-0.03125-0.054688-0.03125-0.10938v-0.17188h-0.046875v-0.078125h0.046875v-0.125z"/>
  </symbol>
  <symbol id="j" overflow="visible">
   <path d="m0.32812-0.34375v-0.20312h0.125v0.54688h-0.125v-0.0625c-0.011719 0.03125-0.03125 0.054688-0.0625 0.0625-0.023437 0.0078125-0.042969 0.015625-0.0625 0.015625-0.054687 0-0.09375-0.019531-0.125-0.0625-0.03125-0.039062-0.046875-0.085937-0.046875-0.14062 0-0.070312 0.015625-0.125 0.046875-0.15625 0.03125-0.039062 0.070313-0.0625 0.125-0.0625 0.019531 0 0.039063 0.007812 0.0625 0.015625 0.03125 0.011719 0.050781 0.027344 0.0625 0.046875zm-0.078125 0.26562c0.019531 0 0.035156-0.0078125 0.046875-0.03125 0.019531-0.019531 0.03125-0.046875 0.03125-0.078125 0-0.039062-0.011719-0.070312-0.03125-0.09375-0.011719-0.019531-0.027344-0.03125-0.046875-0.03125-0.03125 0-0.058594 0.011719-0.078125 0.03125-0.011719 0.023438-0.015625 0.054688-0.015625 0.09375 0 0.03125 0.003906 0.058594 0.015625 0.078125 0.019531 0.023438 0.046875 0.03125 0.078125 0.03125z"/>
  </symbol>
  <symbol id="i" overflow="visible">
   <path d="m0.26562-0.078125c0.03125 0 0.050781-0.0078125 0.0625-0.03125 0.007813-0.019531 0.015625-0.046875 0.015625-0.078125 0-0.039062-0.007812-0.070312-0.015625-0.09375-0.011719-0.019531-0.03125-0.03125-0.0625-0.03125s-0.054687 0.011719-0.0625 0.03125c-0.011719 0.023438-0.015625 0.054688-0.015625 0.09375 0 0.03125 0.003906 0.058594 0.015625 0.078125 0.007813 0.023438 0.03125 0.03125 0.0625 0.03125zm-0.078125-0.26562c0.019531-0.019531 0.039062-0.035156 0.0625-0.046875 0.019531-0.007813 0.039062-0.015625 0.0625-0.015625 0.050781 0 0.09375 0.023438 0.125 0.0625 0.03125 0.03125 0.046875 0.085938 0.046875 0.15625 0 0.054688-0.015625 0.10156-0.046875 0.14062-0.03125 0.042969-0.074219 0.0625-0.125 0.0625-0.023438 0-0.042969-0.0078125-0.0625-0.015625-0.023438-0.0078125-0.042969-0.03125-0.0625-0.0625v0.0625h-0.125v-0.54688h0.125z"/>
  </symbol>
  <symbol id="h" overflow="visible">
   <path d="m0.015625-0.39062h0.125l0.09375 0.26562 0.09375-0.26562h0.14062l-0.17188 0.42188c-0.023437 0.050781-0.042969 0.082031-0.0625 0.09375-0.023437 0.019531-0.054687 0.03125-0.09375 0.03125h-0.078125v-0.09375h0.046875 0.046875c0.007812 0 0.019531-0.015625 0.03125-0.046875z"/>
  </symbol>
  <symbol id="g" overflow="visible">
   <path d="m0.54688-0.03125c-0.042969 0.011719-0.078125 0.023438-0.10938 0.03125s-0.074219 0.015625-0.125 0.015625c-0.085938 0-0.15234-0.023438-0.20312-0.078125-0.054688-0.050781-0.078125-0.11719-0.078125-0.20312 0-0.082031 0.023438-0.14844 0.078125-0.20312 0.050781-0.050781 0.125-0.078125 0.21875-0.078125 0.039063 0 0.070313 0.007813 0.09375 0.015625 0.03125 0.011719 0.0625 0.023438 0.09375 0.03125v0.10938c-0.03125-0.019531-0.0625-0.03125-0.09375-0.03125-0.023437-0.007813-0.046875-0.015625-0.078125-0.015625-0.054688 0-0.09375 0.015625-0.125 0.046875-0.023438 0.03125-0.03125 0.074219-0.03125 0.125 0 0.054687 0.007812 0.09375 0.03125 0.125 0.03125 0.03125 0.070312 0.046875 0.125 0.046875h0.03125c0.007812 0 0.019531-0.0039062 0.03125-0.015625v-0.09375h-0.078125v-0.09375h0.21875z"/>
  </symbol>
  <symbol id="x" overflow="visible">
   <path d="m0.1875-0.0625v0.20312h-0.125v-0.53125h0.125v0.046875c0.019531-0.019531 0.039062-0.035156 0.0625-0.046875 0.019531-0.007813 0.039062-0.015625 0.0625-0.015625 0.050781 0 0.09375 0.023438 0.125 0.0625 0.03125 0.03125 0.046875 0.085938 0.046875 0.15625 0 0.054688-0.015625 0.10156-0.046875 0.14062-0.03125 0.042969-0.074219 0.0625-0.125 0.0625-0.023438 0-0.042969-0.0078125-0.0625-0.015625-0.023438-0.0078125-0.042969-0.03125-0.0625-0.0625zm0.078125-0.25c-0.03125 0-0.054687 0.011719-0.0625 0.03125-0.011719 0.023438-0.015625 0.054688-0.015625 0.09375 0 0.03125 0.003906 0.058594 0.015625 0.078125 0.007813 0.023438 0.03125 0.03125 0.0625 0.03125s0.050781-0.0078125 0.0625-0.03125c0.007813-0.019531 0.015625-0.046875 0.015625-0.078125 0-0.039062-0.007812-0.070312-0.015625-0.09375-0.011719-0.019531-0.03125-0.03125-0.0625-0.03125z"/>
  </symbol>
  <symbol id="f" overflow="visible">
   <path d="m0.46875-0.23438v0.23438h-0.14062v-0.1875-0.0625c0-0.007812-0.007813-0.019531-0.015625-0.03125 0-0.007812-0.007812-0.015625-0.015625-0.015625 0-0.007813-0.011719-0.015625-0.03125-0.015625-0.023437 0-0.042969 0.011719-0.0625 0.03125-0.011719 0.023438-0.015625 0.054688-0.015625 0.09375v0.1875h-0.125v-0.54688h0.125v0.20312c0.019531-0.019531 0.039062-0.035156 0.0625-0.046875 0.019531-0.007813 0.039062-0.015625 0.0625-0.015625 0.050781 0 0.085938 0.015625 0.10938 0.046875 0.03125 0.03125 0.046875 0.074219 0.046875 0.125z"/>
  </symbol>
  <symbol id="w" overflow="visible">
   <path d="m0.0625-0.39062h0.125v0.39062h-0.125zm0-0.15625h0.125v0.09375h-0.125z"/>
  </symbol>
  <symbol id="v" overflow="visible">
   <path d="m0.15625-0.20312-0.14062-0.1875h0.125l0.09375 0.10938 0.078125-0.10938h0.14062l-0.14062 0.1875 0.14062 0.20312h-0.14062l-0.078125-0.125-0.09375 0.125h-0.125z"/>
  </symbol>
  <symbol id="u" overflow="visible">
   <path d="m0.375-0.39062v0.10938c-0.03125-0.019531-0.0625-0.03125-0.09375-0.03125h-0.0625-0.0625c-0.011719 0-0.015625 0.011719-0.015625 0.03125 0 0.011719 0.003906 0.023438 0.015625 0.03125h0.0625 0.015625c0.0625 0.011719 0.10156 0.027344 0.125 0.046875 0.019531 0.011719 0.03125 0.042969 0.03125 0.09375 0 0.03125-0.015625 0.0625-0.046875 0.09375-0.023438 0.019531-0.0625 0.03125-0.125 0.03125-0.03125 0-0.0625-0.0078125-0.09375-0.015625-0.023438 0-0.046875-0.0039062-0.078125-0.015625v-0.09375c0.019531 0.011719 0.039062 0.023438 0.0625 0.03125h0.09375 0.046875c0.007812-0.0078125 0.015625-0.019531 0.015625-0.03125 0-0.019531-0.007813-0.03125-0.015625-0.03125 0 0-0.011719-0.003906-0.03125-0.015625h-0.03125c-0.054688-0.007812-0.09375-0.019531-0.125-0.03125-0.023438-0.019531-0.03125-0.050781-0.03125-0.09375 0-0.039062 0.015625-0.070312 0.046875-0.09375 0.03125-0.019531 0.078125-0.03125 0.14062-0.03125 0.019531 0 0.039062 0.007812 0.0625 0.015625h0.09375z"/>
  </symbol>
  <symbol id="t" overflow="visible">
   <path d="m0.35938 0.10938v0.0625h-0.35938v-0.0625z"/>
  </symbol>
  <symbol id="s" overflow="visible">
   <path d="m0.39062-0.10938h-0.21875l-0.03125 0.10938h-0.14062l0.20312-0.53125h0.15625l0.1875 0.53125h-0.125zm-0.1875-0.078125h0.14062l-0.0625-0.21875z"/>
  </symbol>
  <symbol id="r" overflow="visible">
   <path d="m0.3125-0.54688v0.078125h-0.0625c-0.023438 0-0.039062 0.007812-0.046875 0.015625v0.03125 0.03125h0.10938v0.078125h-0.10938v0.3125h-0.125v-0.3125h-0.0625v-0.078125h0.0625v-0.03125c0-0.039063 0.0078125-0.070313 0.03125-0.09375 0.019531-0.019531 0.054687-0.03125 0.10938-0.03125z"/>
  </symbol>
  <symbol id="d" overflow="visible">
   <path d="m0.25-0.3125c-0.03125 0-0.058594 0.011719-0.078125 0.03125-0.011719 0.011719-0.015625 0.042969-0.015625 0.09375 0 0.03125 0.003906 0.058594 0.015625 0.078125 0.019531 0.023438 0.046875 0.03125 0.078125 0.03125s0.050781-0.0078125 0.0625-0.03125c0.019531-0.019531 0.03125-0.046875 0.03125-0.078125 0-0.050781-0.011719-0.082031-0.03125-0.09375-0.011719-0.019531-0.03125-0.03125-0.0625-0.03125zm0-0.09375c0.0625 0 0.11328 0.023438 0.15625 0.0625 0.039062 0.03125 0.0625 0.085938 0.0625 0.15625 0 0.054688-0.023438 0.10156-0.0625 0.14062-0.042969 0.042969-0.09375 0.0625-0.15625 0.0625-0.074219 0-0.13281-0.019531-0.17188-0.0625-0.03125-0.039062-0.046875-0.085937-0.046875-0.14062 0-0.070312 0.015625-0.125 0.046875-0.15625 0.039063-0.039062 0.097656-0.0625 0.17188-0.0625z"/>
  </symbol>
  <symbol id="q" overflow="visible">
   <path d="m0.42188-0.32812c0.019531-0.019531 0.039063-0.035156 0.0625-0.046875 0.019531-0.019531 0.039063-0.03125 0.0625-0.03125 0.050781 0 0.085937 0.015625 0.10938 0.046875 0.03125 0.03125 0.046875 0.074219 0.046875 0.125v0.23438h-0.14062v-0.20312-0.015625c0-0.03125-0.007812-0.050781-0.015625-0.0625 0-0.019531-0.011719-0.03125-0.03125-0.03125-0.023437 0-0.042969 0.011719-0.0625 0.03125-0.011719 0.023438-0.015625 0.054688-0.015625 0.09375v0.1875h-0.125v-0.20312c0-0.039063-0.007812-0.066406-0.015625-0.078125 0-0.019531-0.011719-0.03125-0.03125-0.03125-0.03125 0-0.054687 0.011719-0.0625 0.03125-0.011719 0.023438-0.015625 0.054688-0.015625 0.09375v0.1875h-0.125v-0.39062h0.125v0.046875l0.046875-0.046875c0.019531-0.007813 0.046875-0.015625 0.078125-0.015625 0.019531 0 0.039062 0.011719 0.0625 0.03125 0.019531 0.011719 0.035156 0.027344 0.046875 0.046875z"/>
  </symbol>
  <symbol id="p" overflow="visible">
   <path d="m0.0625-0.53125h0.15625l0.1875 0.35938v-0.35938h0.14062v0.53125h-0.15625l-0.20312-0.35938v0.35938h-0.125z"/>
  </symbol>
  <symbol id="o" overflow="visible">
   <path d="m0.0625-0.15625v-0.23438h0.125v0.03125 0.09375 0.046875 0.078125 0.03125c0.007812 0 0.015625 0.007813 0.015625 0.015625h0.046875c0.019531 0 0.035156-0.0039062 0.046875-0.015625 0.019531-0.019531 0.03125-0.050781 0.03125-0.09375v-0.1875h0.125v0.39062h-0.125v-0.0625c-0.023437 0.03125-0.042969 0.054688-0.0625 0.0625-0.023437 0.0078125-0.046875 0.015625-0.078125 0.015625-0.042969 0-0.074219-0.015625-0.09375-0.046875-0.023438-0.03125-0.03125-0.070312-0.03125-0.125z"/>
  </symbol>
  <symbol id="n" overflow="visible">
   <path d="m0.46875-0.23438v0.23438h-0.14062v-0.1875-0.0625c0-0.007812-0.007813-0.019531-0.015625-0.03125 0-0.007812-0.007812-0.015625-0.015625-0.015625 0-0.007813-0.011719-0.015625-0.03125-0.015625-0.023437 0-0.042969 0.011719-0.0625 0.03125-0.011719 0.023438-0.015625 0.054688-0.015625 0.09375v0.1875h-0.125v-0.39062h0.125v0.046875c0.019531-0.019531 0.039062-0.035156 0.0625-0.046875 0.019531-0.007813 0.039062-0.015625 0.0625-0.015625 0.050781 0 0.085938 0.015625 0.10938 0.046875 0.03125 0.03125 0.046875 0.074219 0.046875 0.125z"/>
  </symbol>
  <symbol id="m" overflow="visible">
   <path d="m0.0625-0.53125h0.23438c0.0625 0 0.10938 0.015625 0.14062 0.046875 0.039062 0.03125 0.0625 0.078125 0.0625 0.14062 0 0.054688-0.023438 0.09375-0.0625 0.125-0.03125 0.023438-0.078125 0.03125-0.14062 0.03125h-0.09375v0.1875h-0.14062zm0.14062 0.10938v0.14062h0.078125c0.019531 0 0.035156-0.003906 0.046875-0.015625 0.019531-0.007813 0.03125-0.023437 0.03125-0.046875 0-0.03125-0.011719-0.050781-0.03125-0.0625-0.011719-0.007812-0.027344-0.015625-0.046875-0.015625z"/>
  </symbol>
  <symbol id="l" overflow="visible">
   <path d="m0.0625-0.39062h0.125v0.375c0 0.050781-0.015625 0.09375-0.046875 0.125-0.023437 0.03125-0.058594 0.046875-0.10938 0.046875h-0.046875v-0.09375h0.015625c0.019531 0 0.035156-0.0078125 0.046875-0.015625 0.0078125 0 0.015625-0.023438 0.015625-0.0625zm0-0.15625h0.125v0.09375h-0.125z"/>
  </symbol>
  <symbol id="k" overflow="visible">
   <path d="m0.39062-0.39062v0.10938c-0.03125-0.007812-0.054687-0.015625-0.0625-0.015625-0.011719-0.007813-0.03125-0.015625-0.0625-0.015625s-0.058594 0.011719-0.078125 0.03125c-0.023438 0.023438-0.03125 0.054688-0.03125 0.09375 0 0.03125 0.007812 0.058594 0.03125 0.078125 0.019531 0.023438 0.046875 0.03125 0.078125 0.03125s0.050781-0.0039062 0.0625-0.015625c0.019531-0.007812 0.039063-0.015625 0.0625-0.015625v0.09375c-0.03125 0.011719-0.058594 0.015625-0.078125 0.015625-0.011719 0.0078125-0.027344 0.015625-0.046875 0.015625-0.085937 0-0.14844-0.019531-0.1875-0.0625-0.03125-0.039062-0.046875-0.085937-0.046875-0.14062 0-0.070312 0.015625-0.125 0.046875-0.15625 0.039063-0.039062 0.10156-0.0625 0.1875-0.0625 0.019531 0 0.035156 0.007812 0.046875 0.015625h0.078125z"/>
  </symbol>
 </defs>
 <g>
  <path d="m402.99 406.85c-4.6602 0-8.4414-3.7812-8.4414-8.4414s3.7812-8.4414 8.4414-8.4414c10.633 0 19.285-8.6523 19.285-19.281 0-10.633-8.6523-19.285-19.285-19.285l-53.574 0.09375h-0.15234c-12.656 0-23.789-2.7227-35.02-8.5664l-33.703-17.527c-8.8633-4.6055-17.266-6.6602-27.25-6.6602h-51.156c-4.6602 0-8.4414-3.7812-8.4414-8.4414s3.7812-8.4414 8.4414-8.4414h51.16c12.664 0 23.797 2.7227 35.035 8.5664l33.703 17.527c8.8516 4.6055 17.258 6.6602 27.23 6.6602h0.125l53.59-0.09375c19.953 0 36.18 16.223 36.18 36.164 0 19.945-16.223 36.168-36.168 36.168z" fill-rule="evenodd"/>
  <path d="m366 487.07h-13.848c-9.7773 0-18.211-1.5664-27.336-5.0898l-83.414-32.184c-7.1914-2.7734-13.551-3.957-21.262-3.957h-17.211c-4.6602 0-8.4414-3.7812-8.4414-8.4414 0-4.6602 3.7812-8.4414 8.4414-8.4414h17.211c9.7773 0 18.211 1.5703 27.336 5.0898l83.414 32.184c7.1914 2.7773 13.551 3.957 21.262 3.957h13.848c7.6992 0 14.043-1.1797 21.227-3.9453 8.8594-3.4102 21.203-7.8906 35.5-13.078 48.879-17.738 122.75-44.543 148.59-62.117 7.5742-5.1523 10.168-15.664 5.7773-23.426-4.832-8.5391-18.926-13.551-43.996-1.9883-0.23047 0.10547-0.46484 0.20313-0.70312 0.28516l-113.61 40.438c-0.91016 0.32031-1.8672 0.48828-2.832 0.48828h-108.21c-4.6602 0-8.4414-3.7812-8.4414-8.4414s3.7812-8.4414 8.4414-8.4414l106.75 0.003906 111.88-39.82c35.266-16.125 56.906-5.8594 65.41 9.1719 8.7539 15.484 3.9336 35.555-10.973 45.691-27.59 18.762-99.684 44.922-152.33 64.027-14.215 5.1562-26.488 9.6133-35.191 12.961-9.1133 3.5156-17.531 5.0742-27.297 5.0742z" fill-rule="evenodd"/>
  <path d="m176.2 474.64h-37.391c-18.949 0-34.371-15.418-34.371-34.371v-132.37c0-18.949 15.418-34.371 34.371-34.371l37.391 0.003906c18.949 0 34.371 15.418 34.371 34.371v132.37c-0.007813 18.949-15.422 34.367-34.371 34.367zm-37.395-184.23c-9.6445 0-17.488 7.8438-17.488 17.488v132.37c0 9.6445 7.8438 17.488 17.488 17.488h37.391c9.6445 0 17.488-7.8438 17.488-17.488v-132.37c0-9.6445-7.8438-17.488-17.488-17.488z" fill-rule="evenodd"/>
  <path d="m485.63 279.57c-56.508 0-102.48-45.973-102.48-102.48 0-56.508 45.969-102.48 102.48-102.48 56.508 0 102.48 45.973 102.48 102.48 0.003906 56.504-45.969 102.48-102.48 102.48zm0-188.08c-47.199 0-85.598 38.398-85.598 85.602 0 47.199 38.398 85.598 85.598 85.598 47.199 0 85.598-38.398 85.598-85.598 0-47.203-38.398-85.602-85.598-85.602z" fill-rule="evenodd"/>
  <path d="m485.63 244.49c-37.16 0-67.395-30.234-67.395-67.395s30.234-67.395 67.395-67.395c37.16 0 67.395 30.234 67.395 67.395s-30.234 67.395-67.395 67.395zm0-117.91c-27.855 0-50.516 22.66-50.516 50.516s22.66 50.516 50.516 50.516c27.855 0 50.516-22.66 50.516-50.516s-22.66-50.516-50.516-50.516z" fill-rule="evenodd"/>
  <path d="m486.7 208.69h-12.723c-4.6602 0-8.4414-3.7812-8.4414-8.4414s3.7812-8.4414 8.4414-8.4414h12.723c1.1211 0 1.2734-0.23438 1.3242-0.30859 0.40625-0.59375 0.83594-2.0391 0.83594-4.332 0-1.1719-0.99219-2.1641-2.1641-2.1641-12.66 0-21.164-7.6562-21.164-19.047v-1.4062c0-10.5 8.543-19.043 19.047-19.043h12.723c4.6602 0 8.4414 3.7812 8.4414 8.4414 0 4.6602-3.7812 8.4414-8.4414 8.4414h-12.723c-1.1719 0-2.1641 0.99219-2.1641 2.1641v1.4141c0 0.91406 0 2.1641 4.2852 2.1641 10.5 0 19.047 8.543 19.047 19.047-0.003907 13.066-7.4805 21.512-19.047 21.512z" fill-rule="evenodd"/>
  <path d="m486.85 221.86c-4.6602 0-8.4414-3.7812-8.4414-8.4414v-12.816c0-4.6602 3.7812-8.4414 8.4414-8.4414 4.6602 0 8.4414 3.7812 8.4414 8.4414v12.816c0 4.6602-3.7812 8.4414-8.4414 8.4414zm0-59.441c-4.6602 0-8.4414-3.7812-8.4414-8.4414v-13.215c0-4.6602 3.7812-8.4414 8.4414-8.4414 4.6602 0 8.4414 3.7812 8.4414 8.4414v13.215c0 4.6602-3.7812 8.4414-8.4414 8.4414z" fill-rule="evenodd"/>
  <path d="m527.3 143.85c-2.1602 0-4.3203-0.82031-5.9688-2.4727-3.2969-3.2969-3.2969-8.6406 0-11.934l24.805-24.805c3.2969-3.2969 8.6406-3.2969 11.934 0 3.2969 3.2969 3.2969 8.6406 0 11.934l-24.805 24.805c-1.6445 1.6523-3.8047 2.4727-5.9648 2.4727z" fill-rule="evenodd"/>
  <path d="m553.27 250.84c-2.1602 0-4.3203-0.82031-5.9688-2.4727l-24.805-24.805c-3.2969-3.2969-3.2969-8.6406 0-11.934 3.2969-3.2969 8.6406-3.2969 11.934 0l24.805 24.805c3.2969 3.2969 3.2969 8.6406 0 11.934-1.6445 1.6484-3.8047 2.4727-5.9648 2.4727z" fill-rule="evenodd"/>
  <path d="m420.72 253.57c-2.1602 0-4.3203-0.82031-5.9688-2.4727-3.2969-3.2969-3.2969-8.6406 0-11.934l24.801-24.801c3.2969-3.2969 8.6406-3.2969 11.934 0 3.2969 3.2969 3.2969 8.6406 0 11.934l-24.801 24.801c-1.6484 1.6484-3.8086 2.4727-5.9648 2.4727z" fill-rule="evenodd"/>
  <path d="m443.54 144.24c-2.1602 0-4.3203-0.82031-5.9688-2.4727l-24.809-24.812c-3.2969-3.2969-3.2969-8.6406 0-11.934 3.2969-3.2969 8.6406-3.2969 11.934 0l24.809 24.809c3.2969 3.2969 3.2969 8.6406 0 11.934-1.6484 1.6523-3.8047 2.4766-5.9648 2.4766z" fill-rule="evenodd"/>
  <path d="m273.04 264.68c-2.4844 0-4.9453-1.0938-6.6133-3.1875l-86.645-109.03c-2.0156-2.5352-2.4023-6.0039-0.99219-8.9219 1.4102-2.918 4.3633-4.7734 7.6016-4.7734h173.29c4.6602 0 8.4414 3.7812 8.4414 8.4414 0 4.6602-3.7812 8.4414-8.4414 8.4414h-155.8l75.762 95.336c2.9023 3.6484 2.2891 8.9609-1.3594 11.859-1.5469 1.2383-3.4023 1.832-5.2383 1.832z" fill-rule="evenodd"/>
  <path d="m273.03 264.68c-1.8438 0-3.6914-0.59766-5.2461-1.8359-3.6484-2.9023-4.2578-8.2109-1.3594-11.859l86.645-109.03c2.9023-3.6484 8.2109-4.2578 11.859-1.3594 3.6484 2.9023 4.2578 8.2109 1.3594 11.859l-86.645 109.03c-1.668 2.1055-4.1289 3.1953-6.6133 3.1953z" fill-rule="evenodd"/>
  <path d="m186.38 155.65c-1.5703 0-3.1562-0.4375-4.5703-1.3516-3.9141-2.5273-5.043-7.7539-2.5117-11.668l31.805-49.254c1.5547-2.4062 4.2227-3.8633 7.0898-3.8633h108.43c2.8164 0 5.4414 1.4023 7.0078 3.7344l33.051 49.254c2.5977 3.8711 1.5664 9.1172-2.3086 11.711-3.8711 2.5977-9.1172 1.5664-11.711-2.3086l-30.547-45.52h-99.328l-29.312 45.402c-1.6172 2.5-4.3281 3.8633-7.0977 3.8633z" fill-rule="evenodd"/>
  <path d="m273.03 264.68c-3.5742 0-6.8867-2.2812-8.0352-5.8672l-34.898-109.03c-0.82031-2.5664-0.37109-5.3711 1.2227-7.5469 1.5898-2.1758 4.1211-3.4648 6.8164-3.4648l69.793-0.003907c4.6602 0 8.4414 3.7812 8.4414 8.4414 0 4.6602-3.7812 8.4414-8.4414 8.4414h-58.23l31.371 98.016c1.4219 4.4375-1.0273 9.1914-5.4688 10.613-0.85156 0.26953-1.7188 0.39844-2.5703 0.39844z" fill-rule="evenodd"/>
  <path d="m273.04 264.68c-0.85156 0-1.7188-0.13281-2.5781-0.40625-4.4375-1.4219-6.8867-6.1719-5.4688-10.613l34.898-109.03c1.4219-4.4375 6.168-6.8867 10.613-5.4688 4.4375 1.4219 6.8867 6.1719 5.4688 10.613l-34.898 109.03c-1.1484 3.5898-4.4688 5.875-8.0352 5.875z" fill-rule="evenodd"/>
  <path d="m307.93 155.65c-2.6875 0-5.2461-1.2852-6.8438-3.5l-28.551-39.59-27.469 39.477c-1.7656 2.5391-4.7773 3.9102-7.8672 3.5664-3.082-0.34375-5.7227-2.3516-6.8828-5.2227l-19.949-49.258c-1.75-4.3203 0.33594-9.2422 4.6562-10.988 4.3203-1.7461 9.2422 0.33594 10.988 4.6562l14.094 34.812 25.375-36.461c1.5625-2.2461 4.1211-3.5977 6.8555-3.6211 2.7656-0.035156 5.3164 1.2812 6.918 3.5039l26.348 36.539 13.129-34.598c1.6562-4.3594 6.5312-6.5469 10.887-4.8945 4.3594 1.6562 6.5508 6.5273 4.8945 10.887l-18.695 49.254c-1.1055 2.9023-3.7109 4.9648-6.7891 5.3711-0.36328 0.042969-0.73438 0.066407-1.0977 0.066407z" fill-rule="evenodd"/>
  <use x="70" y="562.167969" xlink:href="#y"/>
 </g>
</svg>
